<mxfile host="65bd71144e">
    <diagram id="kXCSuqSDx1_ZFFjeYkCd" name="Page-1">
        <mxGraphModel dx="1439" dy="755" grid="1" gridSize="10" guides="1" tooltips="1" connect="1" arrows="1" fold="1" page="1" pageScale="1" pageWidth="850" pageHeight="1100" math="0" shadow="0">
            <root>
                <mxCell id="0"/>
                <mxCell id="1" parent="0"/>
                <mxCell id="7" value="&lt;span style=&quot;&quot;&gt;Complete project execution&lt;/span&gt;" style="rounded=0;whiteSpace=wrap;html=1;strokeColor=#D6D6D6;fillColor=#f7c382;align=left;spacingLeft=10;" vertex="1" parent="1">
                    <mxGeometry x="70" y="110" width="560" height="30" as="geometry"/>
                </mxCell>
                <mxCell id="8" value="&lt;span&gt;Threat Data Management&lt;/span&gt;" style="rounded=0;whiteSpace=wrap;html=1;strokeColor=#D6D6D6;fillColor=#FBE1C0;align=left;spacingLeft=10;" vertex="1" parent="1">
                    <mxGeometry x="110" y="140" width="280" height="30" as="geometry"/>
                </mxCell>
                <mxCell id="9" value="Deploy and configure MISP" style="rounded=0;whiteSpace=wrap;html=1;strokeColor=#D6D6D6;fillColor=#FFFFFF;align=left;spacingLeft=10;" vertex="1" parent="1">
                    <mxGeometry x="110" y="170" width="280" height="30" as="geometry"/>
                </mxCell>
                <mxCell id="10" value="&lt;span&gt;…&lt;/span&gt;" style="rounded=0;whiteSpace=wrap;html=1;strokeColor=#D6D6D6;fillColor=#FFFFFF;align=left;spacingLeft=10;" vertex="1" parent="1">
                    <mxGeometry x="110" y="230" width="280" height="30" as="geometry"/>
                </mxCell>
                <mxCell id="11" value="&lt;span&gt;…&lt;/span&gt;" style="rounded=0;whiteSpace=wrap;html=1;strokeColor=#D6D6D6;fillColor=#FFFFFF;align=left;spacingLeft=10;" vertex="1" parent="1">
                    <mxGeometry x="110" y="290" width="280" height="30" as="geometry"/>
                </mxCell>
                <mxCell id="12" value="&lt;span&gt;…&lt;/span&gt;" style="rounded=0;whiteSpace=wrap;html=1;strokeColor=#D6D6D6;fillColor=#FFFFFF;align=left;spacingLeft=10;" vertex="1" parent="1">
                    <mxGeometry x="110" y="320" width="280" height="30" as="geometry"/>
                </mxCell>
                <mxCell id="13" value="&lt;span&gt;…&lt;/span&gt;" style="rounded=0;whiteSpace=wrap;html=1;strokeColor=#D6D6D6;fillColor=#FBE1C0;align=left;spacingLeft=10;" vertex="1" parent="1">
                    <mxGeometry x="110" y="350" width="280" height="30" as="geometry"/>
                </mxCell>
                <mxCell id="14" value="&lt;span&gt;…&lt;/span&gt;" style="rounded=0;whiteSpace=wrap;html=1;strokeColor=#D6D6D6;fillColor=#FFFFFF;align=left;spacingLeft=10;" vertex="1" parent="1">
                    <mxGeometry x="110" y="380" width="280" height="30" as="geometry"/>
                </mxCell>
                <mxCell id="15" value="&lt;span&gt;…&lt;/span&gt;" style="rounded=0;whiteSpace=wrap;html=1;strokeColor=#D6D6D6;fillColor=#FFFFFF;align=left;spacingLeft=10;" vertex="1" parent="1">
                    <mxGeometry x="110" y="410" width="280" height="30" as="geometry"/>
                </mxCell>
                <mxCell id="16" value="&lt;span&gt;…&lt;/span&gt;" style="rounded=0;whiteSpace=wrap;html=1;strokeColor=#D6D6D6;fillColor=#FFFFFF;align=left;spacingLeft=10;" vertex="1" parent="1">
                    <mxGeometry x="110" y="440" width="280" height="30" as="geometry"/>
                </mxCell>
                <mxCell id="17" value="Timeline" style="rounded=0;whiteSpace=wrap;html=1;strokeColor=none;fillColor=#D6D6D6;align=left;" vertex="1" parent="1">
                    <mxGeometry x="630" y="30" width="160" height="40" as="geometry"/>
                </mxCell>
                <mxCell id="18" value="&lt;span&gt;…&lt;/span&gt;" style="rounded=0;whiteSpace=wrap;html=1;strokeColor=#D6D6D6;fillColor=#FFFFFF;align=left;spacingLeft=10;" vertex="1" parent="1">
                    <mxGeometry x="110" y="470" width="280" height="30" as="geometry"/>
                </mxCell>
                <mxCell id="19" value="&lt;span&gt;…&lt;/span&gt;" style="rounded=0;whiteSpace=wrap;html=1;strokeColor=#D6D6D6;fillColor=#FFFFFF;align=left;spacingLeft=10;" vertex="1" parent="1">
                    <mxGeometry x="110" y="500" width="280" height="30" as="geometry"/>
                </mxCell>
                <mxCell id="20" value="&lt;span&gt;…&lt;/span&gt;" style="rounded=0;whiteSpace=wrap;html=1;strokeColor=#D6D6D6;fillColor=#FFFFFF;align=left;spacingLeft=10;" vertex="1" parent="1">
                    <mxGeometry x="110" y="530" width="280" height="30" as="geometry"/>
                </mxCell>
                <mxCell id="21" value="&lt;span&gt;…&lt;/span&gt;" style="rounded=0;whiteSpace=wrap;html=1;strokeColor=#D6D6D6;fillColor=#FBE1C0;align=left;spacingLeft=10;" vertex="1" parent="1">
                    <mxGeometry x="110" y="560" width="280" height="30" as="geometry"/>
                </mxCell>
                <mxCell id="22" value="&lt;span&gt;…&lt;/span&gt;" style="rounded=0;whiteSpace=wrap;html=1;strokeColor=#D6D6D6;fillColor=#FFFFFF;align=left;spacingLeft=10;" vertex="1" parent="1">
                    <mxGeometry x="110" y="590" width="280" height="30" as="geometry"/>
                </mxCell>
                <mxCell id="23" value="&lt;span&gt;…&lt;/span&gt;" style="rounded=0;whiteSpace=wrap;html=1;strokeColor=#D6D6D6;fillColor=#FFFFFF;align=left;spacingLeft=10;" vertex="1" parent="1">
                    <mxGeometry x="110" y="620" width="280" height="30" as="geometry"/>
                </mxCell>
                <mxCell id="24" value="&lt;span&gt;…&lt;/span&gt;" style="rounded=0;whiteSpace=wrap;html=1;strokeColor=#D6D6D6;fillColor=#FFFFFF;align=left;spacingLeft=10;" vertex="1" parent="1">
                    <mxGeometry x="110" y="650" width="280" height="30" as="geometry"/>
                </mxCell>
                <mxCell id="25" value="&lt;span&gt;…&lt;/span&gt;" style="rounded=0;whiteSpace=wrap;html=1;strokeColor=#D6D6D6;fillColor=#FFFFFF;align=left;spacingLeft=10;" vertex="1" parent="1">
                    <mxGeometry x="110" y="680" width="280" height="30" as="geometry"/>
                </mxCell>
                <mxCell id="26" value="&lt;span style=&quot;white-space: nowrap&quot;&gt;…&lt;/span&gt;" style="rounded=0;whiteSpace=wrap;html=1;strokeColor=#D6D6D6;fillColor=#FFFFFF;align=left;spacingLeft=10;" vertex="1" parent="1">
                    <mxGeometry x="110" y="710" width="280" height="30" as="geometry"/>
                </mxCell>
                <mxCell id="27" value="1" style="rounded=0;whiteSpace=wrap;html=1;strokeColor=#D6D6D6;fillColor=#FBE1C0;align=right;spacingLeft=10;spacingRight=8;" vertex="1" parent="1">
                    <mxGeometry x="70" y="140" width="40" height="30" as="geometry"/>
                </mxCell>
                <mxCell id="28" value="1.1" style="rounded=0;whiteSpace=wrap;html=1;strokeColor=#D6D6D6;fillColor=#FFFFFF;align=right;spacingLeft=10;spacingRight=8;" vertex="1" parent="1">
                    <mxGeometry x="70" y="170" width="40" height="30" as="geometry"/>
                </mxCell>
                <mxCell id="29" value="1.2" style="rounded=0;whiteSpace=wrap;html=1;strokeColor=#D6D6D6;fillColor=#FFFFFF;align=right;spacingLeft=10;spacingRight=8;" vertex="1" parent="1">
                    <mxGeometry x="70" y="200" width="40" height="30" as="geometry"/>
                </mxCell>
                <mxCell id="30" value="1.4" style="rounded=0;whiteSpace=wrap;html=1;strokeColor=#D6D6D6;fillColor=#FFFFFF;align=right;spacingLeft=10;spacingRight=8;" vertex="1" parent="1">
                    <mxGeometry x="70" y="260" width="40" height="30" as="geometry"/>
                </mxCell>
                <mxCell id="31" value="1.6" style="rounded=0;whiteSpace=wrap;html=1;strokeColor=#D6D6D6;fillColor=#FFFFFF;align=right;spacingLeft=10;spacingRight=8;" vertex="1" parent="1">
                    <mxGeometry x="70" y="320" width="40" height="30" as="geometry"/>
                </mxCell>
                <mxCell id="32" value="2" style="rounded=0;whiteSpace=wrap;html=1;strokeColor=#D6D6D6;fillColor=#FBE1C0;align=right;spacingLeft=10;spacingRight=8;" vertex="1" parent="1">
                    <mxGeometry x="70" y="350" width="40" height="30" as="geometry"/>
                </mxCell>
                <mxCell id="33" value="2.1" style="rounded=0;whiteSpace=wrap;html=1;strokeColor=#D6D6D6;fillColor=#FFFFFF;align=right;spacingLeft=10;spacingRight=8;" vertex="1" parent="1">
                    <mxGeometry x="70" y="380" width="40" height="30" as="geometry"/>
                </mxCell>
                <mxCell id="34" value="2.2" style="rounded=0;whiteSpace=wrap;html=1;strokeColor=#D6D6D6;fillColor=#FFFFFF;align=right;spacingLeft=10;spacingRight=8;" vertex="1" parent="1">
                    <mxGeometry x="70" y="410" width="40" height="30" as="geometry"/>
                </mxCell>
                <mxCell id="35" value="2.3" style="rounded=0;whiteSpace=wrap;html=1;strokeColor=#D6D6D6;fillColor=#FFFFFF;align=right;spacingLeft=10;spacingRight=8;" vertex="1" parent="1">
                    <mxGeometry x="70" y="440" width="40" height="30" as="geometry"/>
                </mxCell>
                <mxCell id="36" value="2.4" style="rounded=0;whiteSpace=wrap;html=1;strokeColor=#D6D6D6;fillColor=#FFFFFF;align=right;spacingLeft=10;spacingRight=8;" vertex="1" parent="1">
                    <mxGeometry x="70" y="470" width="40" height="30" as="geometry"/>
                </mxCell>
                <mxCell id="37" value="2.5" style="rounded=0;whiteSpace=wrap;html=1;strokeColor=#D6D6D6;fillColor=#FFFFFF;align=right;spacingLeft=10;spacingRight=8;" vertex="1" parent="1">
                    <mxGeometry x="70" y="500" width="40" height="30" as="geometry"/>
                </mxCell>
                <mxCell id="38" value="2.6" style="rounded=0;whiteSpace=wrap;html=1;strokeColor=#D6D6D6;fillColor=#FFFFFF;align=right;spacingLeft=10;spacingRight=8;" vertex="1" parent="1">
                    <mxGeometry x="70" y="530" width="40" height="30" as="geometry"/>
                </mxCell>
                <mxCell id="39" value="3" style="rounded=0;whiteSpace=wrap;html=1;strokeColor=#D6D6D6;fillColor=#FBE1C0;align=right;spacingLeft=10;spacingRight=8;" vertex="1" parent="1">
                    <mxGeometry x="70" y="560" width="40" height="30" as="geometry"/>
                </mxCell>
                <mxCell id="40" value="3.1" style="rounded=0;whiteSpace=wrap;html=1;strokeColor=#D6D6D6;fillColor=#FFFFFF;align=right;spacingLeft=10;spacingRight=8;" vertex="1" parent="1">
                    <mxGeometry x="70" y="590" width="40" height="30" as="geometry"/>
                </mxCell>
                <mxCell id="41" value="3.2" style="rounded=0;whiteSpace=wrap;html=1;strokeColor=#D6D6D6;fillColor=#FFFFFF;align=right;spacingLeft=10;spacingRight=8;" vertex="1" parent="1">
                    <mxGeometry x="70" y="620" width="40" height="30" as="geometry"/>
                </mxCell>
                <mxCell id="42" value="3.3" style="rounded=0;whiteSpace=wrap;html=1;strokeColor=#D6D6D6;fillColor=#FFFFFF;align=right;spacingLeft=10;spacingRight=8;" vertex="1" parent="1">
                    <mxGeometry x="70" y="650" width="40" height="30" as="geometry"/>
                </mxCell>
                <mxCell id="43" value="3.4" style="rounded=0;whiteSpace=wrap;html=1;strokeColor=#D6D6D6;fillColor=#FFFFFF;align=right;spacingLeft=10;spacingRight=8;" vertex="1" parent="1">
                    <mxGeometry x="70" y="680" width="40" height="30" as="geometry"/>
                </mxCell>
                <mxCell id="44" value="3.5" style="rounded=0;whiteSpace=wrap;html=1;strokeColor=#D6D6D6;fillColor=#FFFFFF;align=right;spacingLeft=10;spacingRight=8;" vertex="1" parent="1">
                    <mxGeometry x="70" y="710" width="40" height="30" as="geometry"/>
                </mxCell>
                <mxCell id="45" value="XY days" style="rounded=0;whiteSpace=wrap;html=1;strokeColor=#D6D6D6;fillColor=#f7c382;align=left;spacingLeft=10;spacingRight=8;" vertex="1" parent="1">
                    <mxGeometry x="390" y="110" width="80" height="30" as="geometry"/>
                </mxCell>
                <mxCell id="46" value="XY days" style="rounded=0;whiteSpace=wrap;html=1;strokeColor=#D6D6D6;fillColor=#FBE1C0;align=left;spacingLeft=10;spacingRight=8;" vertex="1" parent="1">
                    <mxGeometry x="390" y="140" width="80" height="30" as="geometry"/>
                </mxCell>
                <mxCell id="47" value="XY days" style="rounded=0;whiteSpace=wrap;html=1;strokeColor=#D6D6D6;fillColor=#FFFFFF;align=left;spacingLeft=10;spacingRight=8;" vertex="1" parent="1">
                    <mxGeometry x="390" y="170" width="80" height="30" as="geometry"/>
                </mxCell>
                <mxCell id="48" value="mm-dd-yy" style="rounded=0;whiteSpace=wrap;html=1;strokeColor=#D6D6D6;fillColor=#f7c382;align=left;spacingLeft=10;spacingRight=8;" vertex="1" parent="1">
                    <mxGeometry x="470" y="110" width="80" height="30" as="geometry"/>
                </mxCell>
                <mxCell id="49" value="mm-dd-yy" style="rounded=0;whiteSpace=wrap;html=1;strokeColor=#D6D6D6;fillColor=#FBE1C0;align=left;spacingLeft=10;spacingRight=8;" vertex="1" parent="1">
                    <mxGeometry x="470" y="140" width="80" height="30" as="geometry"/>
                </mxCell>
                <mxCell id="50" value="mm-dd-yy" style="rounded=0;whiteSpace=wrap;html=1;strokeColor=#D6D6D6;fillColor=#FFFFFF;align=left;spacingLeft=10;spacingRight=8;" vertex="1" parent="1">
                    <mxGeometry x="470" y="170" width="80" height="30" as="geometry"/>
                </mxCell>
                <mxCell id="51" value="mm-dd-yy" style="rounded=0;whiteSpace=wrap;html=1;strokeColor=#D6D6D6;fillColor=#f7c382;align=left;spacingLeft=10;spacingRight=8;" vertex="1" parent="1">
                    <mxGeometry x="550" y="110" width="80" height="30" as="geometry"/>
                </mxCell>
                <mxCell id="52" value="mm-dd-yy" style="rounded=0;whiteSpace=wrap;html=1;strokeColor=#D6D6D6;fillColor=#FBE1C0;align=left;spacingLeft=10;spacingRight=8;" vertex="1" parent="1">
                    <mxGeometry x="550" y="140" width="80" height="30" as="geometry"/>
                </mxCell>
                <mxCell id="53" value="mm-dd-yy" style="rounded=0;whiteSpace=wrap;html=1;strokeColor=#D6D6D6;fillColor=#FFFFFF;align=left;spacingLeft=10;spacingRight=8;" vertex="1" parent="1">
                    <mxGeometry x="550" y="170" width="80" height="30" as="geometry"/>
                </mxCell>
                <mxCell id="54" value="&lt;span&gt;…&lt;/span&gt;" style="rounded=0;whiteSpace=wrap;html=1;strokeColor=#D6D6D6;fillColor=#FFFFFF;align=left;spacingLeft=10;" vertex="1" parent="1">
                    <mxGeometry x="110" y="200" width="280" height="30" as="geometry"/>
                </mxCell>
                <mxCell id="55" value="1.3" style="rounded=0;whiteSpace=wrap;html=1;strokeColor=#D6D6D6;fillColor=#FFFFFF;align=right;spacingLeft=10;spacingRight=8;" vertex="1" parent="1">
                    <mxGeometry x="70" y="230" width="40" height="30" as="geometry"/>
                </mxCell>
                <mxCell id="56" value="&lt;span&gt;…&lt;/span&gt;" style="rounded=0;whiteSpace=wrap;html=1;strokeColor=#D6D6D6;fillColor=#FFFFFF;align=left;spacingLeft=10;" vertex="1" parent="1">
                    <mxGeometry x="110" y="260" width="280" height="30" as="geometry"/>
                </mxCell>
                <mxCell id="57" value="1.5" style="rounded=0;whiteSpace=wrap;html=1;strokeColor=#D6D6D6;fillColor=#FFFFFF;align=right;spacingLeft=10;spacingRight=8;" vertex="1" parent="1">
                    <mxGeometry x="70" y="290" width="40" height="30" as="geometry"/>
                </mxCell>
                <mxCell id="58" value="#" style="rounded=0;whiteSpace=wrap;html=1;strokeColor=none;fillColor=#D6D6D6;align=center;" vertex="1" parent="1">
                    <mxGeometry x="70" y="70" width="40" height="40" as="geometry"/>
                </mxCell>
                <mxCell id="59" value="&lt;span&gt;Task Name&lt;/span&gt;" style="rounded=0;whiteSpace=wrap;html=1;strokeColor=none;fillColor=#D6D6D6;align=center;" vertex="1" parent="1">
                    <mxGeometry x="110" y="70" width="280" height="40" as="geometry"/>
                </mxCell>
                <mxCell id="60" value="Duration" style="rounded=0;whiteSpace=wrap;html=1;strokeColor=none;fillColor=#D6D6D6;align=center;" vertex="1" parent="1">
                    <mxGeometry x="390" y="70" width="80" height="40" as="geometry"/>
                </mxCell>
                <mxCell id="61" value="Start" style="rounded=0;whiteSpace=wrap;html=1;strokeColor=none;fillColor=#D6D6D6;align=center;" vertex="1" parent="1">
                    <mxGeometry x="470" y="70" width="80" height="40" as="geometry"/>
                </mxCell>
                <mxCell id="62" value="ETA" style="rounded=0;whiteSpace=wrap;html=1;strokeColor=none;fillColor=#D6D6D6;align=center;" vertex="1" parent="1">
                    <mxGeometry x="550" y="70" width="80" height="40" as="geometry"/>
                </mxCell>
                <mxCell id="63" value="mm-dd-yy" style="rounded=0;whiteSpace=wrap;html=1;strokeColor=#D6D6D6;fillColor=#FFFFFF;align=left;spacingLeft=10;spacingRight=8;" vertex="1" parent="1">
                    <mxGeometry x="470" y="200" width="80" height="30" as="geometry"/>
                </mxCell>
                <mxCell id="64" value="mm-dd-yy" style="rounded=0;whiteSpace=wrap;html=1;strokeColor=#D6D6D6;fillColor=#FFFFFF;align=left;spacingLeft=10;spacingRight=8;" vertex="1" parent="1">
                    <mxGeometry x="550" y="200" width="80" height="30" as="geometry"/>
                </mxCell>
                <mxCell id="65" value="XY days" style="rounded=0;whiteSpace=wrap;html=1;strokeColor=#D6D6D6;fillColor=#FFFFFF;align=left;spacingLeft=10;spacingRight=8;" vertex="1" parent="1">
                    <mxGeometry x="390" y="200" width="80" height="30" as="geometry"/>
                </mxCell>
                <mxCell id="66" value="mm-dd-yy" style="rounded=0;whiteSpace=wrap;html=1;strokeColor=#D6D6D6;fillColor=#FFFFFF;align=left;spacingLeft=10;spacingRight=8;" vertex="1" parent="1">
                    <mxGeometry x="470" y="230" width="80" height="30" as="geometry"/>
                </mxCell>
                <mxCell id="67" value="mm-dd-yy" style="rounded=0;whiteSpace=wrap;html=1;strokeColor=#D6D6D6;fillColor=#FFFFFF;align=left;spacingLeft=10;spacingRight=8;" vertex="1" parent="1">
                    <mxGeometry x="550" y="230" width="80" height="30" as="geometry"/>
                </mxCell>
                <mxCell id="68" value="XY days" style="rounded=0;whiteSpace=wrap;html=1;strokeColor=#D6D6D6;fillColor=#FFFFFF;align=left;spacingLeft=10;spacingRight=8;" vertex="1" parent="1">
                    <mxGeometry x="390" y="230" width="80" height="30" as="geometry"/>
                </mxCell>
                <mxCell id="69" value="XY days" style="rounded=0;whiteSpace=wrap;html=1;strokeColor=#D6D6D6;fillColor=#FFFFFF;align=left;spacingLeft=10;spacingRight=8;" vertex="1" parent="1">
                    <mxGeometry x="390" y="260" width="80" height="30" as="geometry"/>
                </mxCell>
                <mxCell id="70" value="mm-dd-yy" style="rounded=0;whiteSpace=wrap;html=1;strokeColor=#D6D6D6;fillColor=#FFFFFF;align=left;spacingLeft=10;spacingRight=8;" vertex="1" parent="1">
                    <mxGeometry x="470" y="260" width="80" height="30" as="geometry"/>
                </mxCell>
                <mxCell id="71" value="mm-dd-yy" style="rounded=0;whiteSpace=wrap;html=1;strokeColor=#D6D6D6;fillColor=#FFFFFF;align=left;spacingLeft=10;spacingRight=8;" vertex="1" parent="1">
                    <mxGeometry x="470" y="290" width="80" height="30" as="geometry"/>
                </mxCell>
                <mxCell id="72" value="XY days" style="rounded=0;whiteSpace=wrap;html=1;strokeColor=#D6D6D6;fillColor=#FFFFFF;align=left;spacingLeft=10;spacingRight=8;" vertex="1" parent="1">
                    <mxGeometry x="390" y="290" width="80" height="30" as="geometry"/>
                </mxCell>
                <mxCell id="73" value="mm-dd-yy" style="rounded=0;whiteSpace=wrap;html=1;strokeColor=#D6D6D6;fillColor=#FFFFFF;align=left;spacingLeft=10;spacingRight=8;" vertex="1" parent="1">
                    <mxGeometry x="470" y="320" width="80" height="30" as="geometry"/>
                </mxCell>
                <mxCell id="74" value="XY days" style="rounded=0;whiteSpace=wrap;html=1;strokeColor=#D6D6D6;fillColor=#FFFFFF;align=left;spacingLeft=10;spacingRight=8;" vertex="1" parent="1">
                    <mxGeometry x="390" y="320" width="80" height="30" as="geometry"/>
                </mxCell>
                <mxCell id="75" value="mm-dd-yy" style="rounded=0;whiteSpace=wrap;html=1;strokeColor=#D6D6D6;fillColor=#FFFFFF;align=left;spacingLeft=10;spacingRight=8;" vertex="1" parent="1">
                    <mxGeometry x="550" y="260" width="80" height="30" as="geometry"/>
                </mxCell>
                <mxCell id="76" value="mm-dd-yy" style="rounded=0;whiteSpace=wrap;html=1;strokeColor=#D6D6D6;fillColor=#FFFFFF;align=left;spacingLeft=10;spacingRight=8;" vertex="1" parent="1">
                    <mxGeometry x="550" y="290" width="80" height="30" as="geometry"/>
                </mxCell>
                <mxCell id="77" value="mm-dd-yy" style="rounded=0;whiteSpace=wrap;html=1;strokeColor=#D6D6D6;fillColor=#FFFFFF;align=left;spacingLeft=10;spacingRight=8;" vertex="1" parent="1">
                    <mxGeometry x="550" y="320" width="80" height="30" as="geometry"/>
                </mxCell>
                <mxCell id="78" value="XY days" style="rounded=0;whiteSpace=wrap;html=1;strokeColor=#D6D6D6;fillColor=#FFFFFF;align=left;spacingLeft=10;spacingRight=8;" vertex="1" parent="1">
                    <mxGeometry x="390" y="380" width="80" height="30" as="geometry"/>
                </mxCell>
                <mxCell id="79" value="mm-dd-yy" style="rounded=0;whiteSpace=wrap;html=1;strokeColor=#D6D6D6;fillColor=#FFFFFF;align=left;spacingLeft=10;spacingRight=8;" vertex="1" parent="1">
                    <mxGeometry x="470" y="380" width="80" height="30" as="geometry"/>
                </mxCell>
                <mxCell id="80" value="mm-dd-yy" style="rounded=0;whiteSpace=wrap;html=1;strokeColor=#D6D6D6;fillColor=#FFFFFF;align=left;spacingLeft=10;spacingRight=8;" vertex="1" parent="1">
                    <mxGeometry x="470" y="410" width="80" height="30" as="geometry"/>
                </mxCell>
                <mxCell id="81" value="XY days" style="rounded=0;whiteSpace=wrap;html=1;strokeColor=#D6D6D6;fillColor=#FFFFFF;align=left;spacingLeft=10;spacingRight=8;" vertex="1" parent="1">
                    <mxGeometry x="390" y="410" width="80" height="30" as="geometry"/>
                </mxCell>
                <mxCell id="82" value="mm-dd-yy" style="rounded=0;whiteSpace=wrap;html=1;strokeColor=#D6D6D6;fillColor=#FFFFFF;align=left;spacingLeft=10;spacingRight=8;" vertex="1" parent="1">
                    <mxGeometry x="470" y="440" width="80" height="30" as="geometry"/>
                </mxCell>
                <mxCell id="83" value="XY days" style="rounded=0;whiteSpace=wrap;html=1;strokeColor=#D6D6D6;fillColor=#FFFFFF;align=left;spacingLeft=10;spacingRight=8;" vertex="1" parent="1">
                    <mxGeometry x="390" y="440" width="80" height="30" as="geometry"/>
                </mxCell>
                <mxCell id="84" value="mm-dd-yy" style="rounded=0;whiteSpace=wrap;html=1;strokeColor=#D6D6D6;fillColor=#FFFFFF;align=left;spacingLeft=10;spacingRight=8;" vertex="1" parent="1">
                    <mxGeometry x="550" y="380" width="80" height="30" as="geometry"/>
                </mxCell>
                <mxCell id="85" value="mm-dd-yy" style="rounded=0;whiteSpace=wrap;html=1;strokeColor=#D6D6D6;fillColor=#FFFFFF;align=left;spacingLeft=10;spacingRight=8;" vertex="1" parent="1">
                    <mxGeometry x="550" y="410" width="80" height="30" as="geometry"/>
                </mxCell>
                <mxCell id="86" value="mm-dd-yy" style="rounded=0;whiteSpace=wrap;html=1;strokeColor=#D6D6D6;fillColor=#FFFFFF;align=left;spacingLeft=10;spacingRight=8;" vertex="1" parent="1">
                    <mxGeometry x="550" y="440" width="80" height="30" as="geometry"/>
                </mxCell>
                <mxCell id="87" value="XY days" style="rounded=0;whiteSpace=wrap;html=1;strokeColor=#D6D6D6;fillColor=#FFFFFF;align=left;spacingLeft=10;spacingRight=8;" vertex="1" parent="1">
                    <mxGeometry x="390" y="470" width="80" height="30" as="geometry"/>
                </mxCell>
                <mxCell id="88" value="mm-dd-yy" style="rounded=0;whiteSpace=wrap;html=1;strokeColor=#D6D6D6;fillColor=#FFFFFF;align=left;spacingLeft=10;spacingRight=8;" vertex="1" parent="1">
                    <mxGeometry x="470" y="470" width="80" height="30" as="geometry"/>
                </mxCell>
                <mxCell id="89" value="mm-dd-yy" style="rounded=0;whiteSpace=wrap;html=1;strokeColor=#D6D6D6;fillColor=#FFFFFF;align=left;spacingLeft=10;spacingRight=8;" vertex="1" parent="1">
                    <mxGeometry x="470" y="500" width="80" height="30" as="geometry"/>
                </mxCell>
                <mxCell id="90" value="XY days" style="rounded=0;whiteSpace=wrap;html=1;strokeColor=#D6D6D6;fillColor=#FFFFFF;align=left;spacingLeft=10;spacingRight=8;" vertex="1" parent="1">
                    <mxGeometry x="390" y="500" width="80" height="30" as="geometry"/>
                </mxCell>
                <mxCell id="91" value="mm-dd-yy" style="rounded=0;whiteSpace=wrap;html=1;strokeColor=#D6D6D6;fillColor=#FFFFFF;align=left;spacingLeft=10;spacingRight=8;" vertex="1" parent="1">
                    <mxGeometry x="470" y="530" width="80" height="30" as="geometry"/>
                </mxCell>
                <mxCell id="92" value="XY days" style="rounded=0;whiteSpace=wrap;html=1;strokeColor=#D6D6D6;fillColor=#FFFFFF;align=left;spacingLeft=10;spacingRight=8;" vertex="1" parent="1">
                    <mxGeometry x="390" y="530" width="80" height="30" as="geometry"/>
                </mxCell>
                <mxCell id="93" value="mm-dd-yy" style="rounded=0;whiteSpace=wrap;html=1;strokeColor=#D6D6D6;fillColor=#FFFFFF;align=left;spacingLeft=10;spacingRight=8;" vertex="1" parent="1">
                    <mxGeometry x="550" y="470" width="80" height="30" as="geometry"/>
                </mxCell>
                <mxCell id="94" value="mm-dd-yy" style="rounded=0;whiteSpace=wrap;html=1;strokeColor=#D6D6D6;fillColor=#FFFFFF;align=left;spacingLeft=10;spacingRight=8;" vertex="1" parent="1">
                    <mxGeometry x="550" y="500" width="80" height="30" as="geometry"/>
                </mxCell>
                <mxCell id="95" value="mm-dd-yy" style="rounded=0;whiteSpace=wrap;html=1;strokeColor=#D6D6D6;fillColor=#FFFFFF;align=left;spacingLeft=10;spacingRight=8;" vertex="1" parent="1">
                    <mxGeometry x="550" y="530" width="80" height="30" as="geometry"/>
                </mxCell>
                <mxCell id="96" value="XY days" style="rounded=0;whiteSpace=wrap;html=1;strokeColor=#D6D6D6;fillColor=#FFFFFF;align=left;spacingLeft=10;spacingRight=8;" vertex="1" parent="1">
                    <mxGeometry x="390" y="590" width="80" height="30" as="geometry"/>
                </mxCell>
                <mxCell id="97" value="mm-dd-yy" style="rounded=0;whiteSpace=wrap;html=1;strokeColor=#D6D6D6;fillColor=#FFFFFF;align=left;spacingLeft=10;spacingRight=8;" vertex="1" parent="1">
                    <mxGeometry x="470" y="590" width="80" height="30" as="geometry"/>
                </mxCell>
                <mxCell id="98" value="mm-dd-yy" style="rounded=0;whiteSpace=wrap;html=1;strokeColor=#D6D6D6;fillColor=#FFFFFF;align=left;spacingLeft=10;spacingRight=8;" vertex="1" parent="1">
                    <mxGeometry x="470" y="620" width="80" height="30" as="geometry"/>
                </mxCell>
                <mxCell id="99" value="XY days" style="rounded=0;whiteSpace=wrap;html=1;strokeColor=#D6D6D6;fillColor=#FFFFFF;align=left;spacingLeft=10;spacingRight=8;" vertex="1" parent="1">
                    <mxGeometry x="390" y="620" width="80" height="30" as="geometry"/>
                </mxCell>
                <mxCell id="100" value="mm-dd-yy" style="rounded=0;whiteSpace=wrap;html=1;strokeColor=#D6D6D6;fillColor=#FFFFFF;align=left;spacingLeft=10;spacingRight=8;" vertex="1" parent="1">
                    <mxGeometry x="470" y="650" width="80" height="30" as="geometry"/>
                </mxCell>
                <mxCell id="101" value="XY days" style="rounded=0;whiteSpace=wrap;html=1;strokeColor=#D6D6D6;fillColor=#FFFFFF;align=left;spacingLeft=10;spacingRight=8;" vertex="1" parent="1">
                    <mxGeometry x="390" y="650" width="80" height="30" as="geometry"/>
                </mxCell>
                <mxCell id="102" value="mm-dd-yy" style="rounded=0;whiteSpace=wrap;html=1;strokeColor=#D6D6D6;fillColor=#FFFFFF;align=left;spacingLeft=10;spacingRight=8;" vertex="1" parent="1">
                    <mxGeometry x="550" y="590" width="80" height="30" as="geometry"/>
                </mxCell>
                <mxCell id="103" value="mm-dd-yy" style="rounded=0;whiteSpace=wrap;html=1;strokeColor=#D6D6D6;fillColor=#FFFFFF;align=left;spacingLeft=10;spacingRight=8;" vertex="1" parent="1">
                    <mxGeometry x="550" y="620" width="80" height="30" as="geometry"/>
                </mxCell>
                <mxCell id="104" value="mm-dd-yy" style="rounded=0;whiteSpace=wrap;html=1;strokeColor=#D6D6D6;fillColor=#FFFFFF;align=left;spacingLeft=10;spacingRight=8;" vertex="1" parent="1">
                    <mxGeometry x="550" y="650" width="80" height="30" as="geometry"/>
                </mxCell>
                <mxCell id="105" value="XY days" style="rounded=0;whiteSpace=wrap;html=1;strokeColor=#D6D6D6;fillColor=#FFFFFF;align=left;spacingLeft=10;spacingRight=8;" vertex="1" parent="1">
                    <mxGeometry x="390" y="680" width="80" height="30" as="geometry"/>
                </mxCell>
                <mxCell id="106" value="mm-dd-yy" style="rounded=0;whiteSpace=wrap;html=1;strokeColor=#D6D6D6;fillColor=#FFFFFF;align=left;spacingLeft=10;spacingRight=8;" vertex="1" parent="1">
                    <mxGeometry x="470" y="680" width="80" height="30" as="geometry"/>
                </mxCell>
                <mxCell id="107" value="mm-dd-yy" style="rounded=0;whiteSpace=wrap;html=1;strokeColor=#D6D6D6;fillColor=#FFFFFF;align=left;spacingLeft=10;spacingRight=8;" vertex="1" parent="1">
                    <mxGeometry x="470" y="710" width="80" height="30" as="geometry"/>
                </mxCell>
                <mxCell id="108" value="XY days" style="rounded=0;whiteSpace=wrap;html=1;strokeColor=#D6D6D6;fillColor=#FFFFFF;align=left;spacingLeft=10;spacingRight=8;" vertex="1" parent="1">
                    <mxGeometry x="390" y="710" width="80" height="30" as="geometry"/>
                </mxCell>
                <mxCell id="109" value="mm-dd-yy" style="rounded=0;whiteSpace=wrap;html=1;strokeColor=#D6D6D6;fillColor=#FFFFFF;align=left;spacingLeft=10;spacingRight=8;" vertex="1" parent="1">
                    <mxGeometry x="550" y="680" width="80" height="30" as="geometry"/>
                </mxCell>
                <mxCell id="110" value="mm-dd-yy" style="rounded=0;whiteSpace=wrap;html=1;strokeColor=#D6D6D6;fillColor=#FFFFFF;align=left;spacingLeft=10;spacingRight=8;" vertex="1" parent="1">
                    <mxGeometry x="550" y="710" width="80" height="30" as="geometry"/>
                </mxCell>
                <mxCell id="111" value="XY days" style="rounded=0;whiteSpace=wrap;html=1;strokeColor=#D6D6D6;fillColor=#FBE1C0;align=left;spacingLeft=10;spacingRight=8;" vertex="1" parent="1">
                    <mxGeometry x="390" y="350" width="80" height="30" as="geometry"/>
                </mxCell>
                <mxCell id="112" value="mm-dd-yy" style="rounded=0;whiteSpace=wrap;html=1;strokeColor=#D6D6D6;fillColor=#FBE1C0;align=left;spacingLeft=10;spacingRight=8;" vertex="1" parent="1">
                    <mxGeometry x="470" y="350" width="80" height="30" as="geometry"/>
                </mxCell>
                <mxCell id="113" value="mm-dd-yy" style="rounded=0;whiteSpace=wrap;html=1;strokeColor=#D6D6D6;fillColor=#FBE1C0;align=left;spacingLeft=10;spacingRight=8;" vertex="1" parent="1">
                    <mxGeometry x="550" y="350" width="80" height="30" as="geometry"/>
                </mxCell>
                <mxCell id="114" value="XY days" style="rounded=0;whiteSpace=wrap;html=1;strokeColor=#D6D6D6;fillColor=#FBE1C0;align=left;spacingLeft=10;spacingRight=8;" vertex="1" parent="1">
                    <mxGeometry x="390" y="560" width="80" height="30" as="geometry"/>
                </mxCell>
                <mxCell id="115" value="mm-dd-yy" style="rounded=0;whiteSpace=wrap;html=1;strokeColor=#D6D6D6;fillColor=#FBE1C0;align=left;spacingLeft=10;spacingRight=8;" vertex="1" parent="1">
                    <mxGeometry x="470" y="560" width="80" height="30" as="geometry"/>
                </mxCell>
                <mxCell id="116" value="mm-dd-yy" style="rounded=0;whiteSpace=wrap;html=1;strokeColor=#D6D6D6;fillColor=#FBE1C0;align=left;spacingLeft=10;spacingRight=8;" vertex="1" parent="1">
                    <mxGeometry x="550" y="560" width="80" height="30" as="geometry"/>
                </mxCell>
            </root>
        </mxGraphModel>
    </diagram>
    <diagram id="2bhFVqvQSbl19ur-FwTS" name="Page-2">
        <mxGraphModel dx="1439" dy="755" grid="1" gridSize="10" guides="1" tooltips="1" connect="1" arrows="1" fold="1" page="1" pageScale="1" pageWidth="850" pageHeight="1100" math="0" shadow="0">
            <root>
                <mxCell id="0"/>
                <mxCell id="1" parent="0"/>
            </root>
        </mxGraphModel>
    </diagram>
</mxfile>